<?xml version="1.0"?>
<svg width="640" height="480" xmlns="http://www.w3.org/2000/svg" xmlns:svg="http://www.w3.org/2000/svg">
 <!-- Created with SVG-edit - http://svg-edit.googlecode.com/ -->
 <g>
  <title>Layer 1</title>
  <polygon stroke-width="5" stroke="#000000" points="92,17.237030029296875 113.57476806640625,79.30487060546875 179.27178955078125,80.6436767578125 126.90872192382812,120.342529296875 145.93692016601562,183.23782348632812 92,145.7052001953125 38.063079833984375,183.23782348632812 57.09130859375,120.342529296875 4.72821044921875,80.6436767578125 70.42523193359375,79.30487060546875 92,17.237030029296875 113.57476806640625,79.30487060546875 " strokeWidth="5" strokecolor="#000000" fill="#000000" orient="point" r2="36.705192" r="91.76298" point="5" shape="star" id="svg_2" cy="187" cx="270"/>
  <polygon stroke-width="5" stroke="#000000" points="40,18.441436767578125 45.3038330078125,33.69989013671875 61.4544677734375,34.029022216796875 48.581787109375,43.78839111328125 53.25958251953125,59.25025939941406 40,50.02342224121094 26.740402221679688,59.25025939941406 31.418212890625,43.78839111328125 18.5455322265625,34.029022216796875 34.6961669921875,33.69989013671875 40,18.441436767578125 45.3038330078125,33.69989013671875 " strokeWidth="5" strokecolor="#000000" fill="#000000" orient="point" r2="9.023426" r="22.558566" point="5" shape="star" id="svg_3" cy="168" cx="263"/>
  <path stroke="#000000" id="svg_6" d="m96.91333,299.993896l-64.031921,-77.999985l115.129028,77.999985l-115.129028,78.000031l64.031921,-78.000031z" stroke-linecap="null" stroke-linejoin="null" stroke-dasharray="null" stroke-width="5" fill="#000000"/>
 </g>
</svg>